<mxfile host="app.diagrams.net" modified="2023-07-14T02:26:07.545Z" agent="Mozilla/5.0 (Windows NT 10.0; Win64; x64) AppleWebKit/537.36 (KHTML, like Gecko) Chrome/114.0.0.0 Safari/537.36 Edg/114.0.1823.79" etag="PGzdO5mzF8JaCIIPZH35" version="21.6.2" type="github">
  <diagram name="Page-1" id="74e2e168-ea6b-b213-b513-2b3c1d86103e">
    <mxGraphModel dx="1434" dy="796" grid="1" gridSize="10" guides="1" tooltips="1" connect="1" arrows="1" fold="1" page="1" pageScale="1" pageWidth="1100" pageHeight="850" background="none" math="0" shadow="0">
      <root>
        <mxCell id="0" />
        <mxCell id="1" parent="0" />
        <mxCell id="tNh9Pu8-4xg1eCCbPvk3-1" value="Activity Diagram Login" style="swimlane;html=1;childLayout=stackLayout;startSize=20;rounded=0;shadow=0;labelBackgroundColor=none;strokeWidth=1;fontFamily=Verdana;fontSize=8;align=center;" vertex="1" parent="1">
          <mxGeometry x="80" width="950" height="780" as="geometry" />
        </mxCell>
        <mxCell id="tNh9Pu8-4xg1eCCbPvk3-2" value="User" style="swimlane;html=1;startSize=20;" vertex="1" parent="tNh9Pu8-4xg1eCCbPvk3-1">
          <mxGeometry y="20" width="190" height="760" as="geometry" />
        </mxCell>
        <mxCell id="tNh9Pu8-4xg1eCCbPvk3-3" value="" style="edgeStyle=orthogonalEdgeStyle;rounded=0;orthogonalLoop=1;jettySize=auto;html=1;" edge="1" parent="tNh9Pu8-4xg1eCCbPvk3-2" source="tNh9Pu8-4xg1eCCbPvk3-4" target="tNh9Pu8-4xg1eCCbPvk3-5">
          <mxGeometry relative="1" as="geometry" />
        </mxCell>
        <mxCell id="tNh9Pu8-4xg1eCCbPvk3-4" value="" style="strokeWidth=2;html=1;shape=mxgraph.flowchart.start_2;whiteSpace=wrap;fillStyle=solid;" vertex="1" parent="tNh9Pu8-4xg1eCCbPvk3-2">
          <mxGeometry x="72" y="44" width="46" height="46" as="geometry" />
        </mxCell>
        <mxCell id="tNh9Pu8-4xg1eCCbPvk3-5" value="Memilih Menu Login" style="rounded=1;whiteSpace=wrap;html=1;strokeWidth=2;fillStyle=solid;arcSize=50;" vertex="1" parent="tNh9Pu8-4xg1eCCbPvk3-2">
          <mxGeometry x="20" y="124" width="150" height="37" as="geometry" />
        </mxCell>
        <mxCell id="tNh9Pu8-4xg1eCCbPvk3-6" value="Input emai,password" style="rounded=1;whiteSpace=wrap;html=1;strokeWidth=2;fillStyle=solid;arcSize=50;" vertex="1" parent="tNh9Pu8-4xg1eCCbPvk3-2">
          <mxGeometry x="20" y="194" width="150" height="37" as="geometry" />
        </mxCell>
        <mxCell id="tNh9Pu8-4xg1eCCbPvk3-7" value="Start" style="text;html=1;align=center;verticalAlign=middle;resizable=0;points=[];autosize=1;strokeColor=none;fillColor=none;" vertex="1" parent="tNh9Pu8-4xg1eCCbPvk3-2">
          <mxGeometry x="120" y="52" width="50" height="30" as="geometry" />
        </mxCell>
        <mxCell id="tNh9Pu8-4xg1eCCbPvk3-8" value="Controller" style="swimlane;html=1;startSize=20;" vertex="1" parent="tNh9Pu8-4xg1eCCbPvk3-1">
          <mxGeometry x="190" y="20" width="370" height="760" as="geometry" />
        </mxCell>
        <mxCell id="tNh9Pu8-4xg1eCCbPvk3-9" style="edgeStyle=orthogonalEdgeStyle;rounded=0;orthogonalLoop=1;jettySize=auto;html=1;exitX=0.5;exitY=1;exitDx=0;exitDy=0;" edge="1" parent="tNh9Pu8-4xg1eCCbPvk3-8">
          <mxGeometry relative="1" as="geometry">
            <mxPoint x="80" y="352.5" as="sourcePoint" />
            <mxPoint x="80" y="352.5" as="targetPoint" />
          </mxGeometry>
        </mxCell>
        <mxCell id="tNh9Pu8-4xg1eCCbPvk3-10" style="edgeStyle=orthogonalEdgeStyle;rounded=0;orthogonalLoop=1;jettySize=auto;html=1;entryX=0.5;entryY=0;entryDx=0;entryDy=0;" edge="1" parent="tNh9Pu8-4xg1eCCbPvk3-8" source="tNh9Pu8-4xg1eCCbPvk3-11" target="tNh9Pu8-4xg1eCCbPvk3-13">
          <mxGeometry relative="1" as="geometry" />
        </mxCell>
        <mxCell id="tNh9Pu8-4xg1eCCbPvk3-11" value="Mengirim Request Login" style="rounded=1;whiteSpace=wrap;html=1;strokeWidth=2;fillStyle=solid;arcSize=50;" vertex="1" parent="tNh9Pu8-4xg1eCCbPvk3-8">
          <mxGeometry x="95" y="244" width="170" height="37" as="geometry" />
        </mxCell>
        <mxCell id="tNh9Pu8-4xg1eCCbPvk3-12" style="edgeStyle=orthogonalEdgeStyle;rounded=0;orthogonalLoop=1;jettySize=auto;html=1;entryX=0.5;entryY=0;entryDx=0;entryDy=0;entryPerimeter=0;" edge="1" parent="tNh9Pu8-4xg1eCCbPvk3-8" source="tNh9Pu8-4xg1eCCbPvk3-13" target="tNh9Pu8-4xg1eCCbPvk3-14">
          <mxGeometry relative="1" as="geometry" />
        </mxCell>
        <mxCell id="tNh9Pu8-4xg1eCCbPvk3-13" value="Validasi email, password" style="rounded=1;whiteSpace=wrap;html=1;strokeWidth=2;fillStyle=solid;arcSize=50;" vertex="1" parent="tNh9Pu8-4xg1eCCbPvk3-8">
          <mxGeometry x="100" y="314" width="160" height="55" as="geometry" />
        </mxCell>
        <mxCell id="tNh9Pu8-4xg1eCCbPvk3-14" value="" style="strokeWidth=2;html=1;shape=mxgraph.flowchart.decision;whiteSpace=wrap;" vertex="1" parent="tNh9Pu8-4xg1eCCbPvk3-8">
          <mxGeometry x="162" y="394" width="36" height="36" as="geometry" />
        </mxCell>
        <mxCell id="tNh9Pu8-4xg1eCCbPvk3-40" style="edgeStyle=orthogonalEdgeStyle;rounded=0;orthogonalLoop=1;jettySize=auto;html=1;entryX=0.5;entryY=0;entryDx=0;entryDy=0;entryPerimeter=0;" edge="1" parent="tNh9Pu8-4xg1eCCbPvk3-8" source="tNh9Pu8-4xg1eCCbPvk3-16" target="tNh9Pu8-4xg1eCCbPvk3-39">
          <mxGeometry relative="1" as="geometry" />
        </mxCell>
        <mxCell id="tNh9Pu8-4xg1eCCbPvk3-16" value="Cek Role" style="rounded=1;whiteSpace=wrap;html=1;strokeWidth=2;fillStyle=solid;arcSize=50;" vertex="1" parent="tNh9Pu8-4xg1eCCbPvk3-8">
          <mxGeometry x="80" y="500" width="170" height="37" as="geometry" />
        </mxCell>
        <mxCell id="tNh9Pu8-4xg1eCCbPvk3-17" value="Request View Admin" style="rounded=1;whiteSpace=wrap;html=1;strokeWidth=2;fillStyle=solid;arcSize=50;" vertex="1" parent="tNh9Pu8-4xg1eCCbPvk3-8">
          <mxGeometry x="5" y="600" width="170" height="37" as="geometry" />
        </mxCell>
        <mxCell id="tNh9Pu8-4xg1eCCbPvk3-18" value="Request View Login" style="rounded=1;whiteSpace=wrap;html=1;strokeWidth=2;fillStyle=solid;arcSize=50;" vertex="1" parent="tNh9Pu8-4xg1eCCbPvk3-8">
          <mxGeometry x="120" y="124" width="120" height="37" as="geometry" />
        </mxCell>
        <mxCell id="tNh9Pu8-4xg1eCCbPvk3-42" value="" style="edgeStyle=orthogonalEdgeStyle;rounded=0;orthogonalLoop=1;jettySize=auto;html=1;exitX=0;exitY=0.5;exitDx=0;exitDy=0;exitPerimeter=0;" edge="1" parent="tNh9Pu8-4xg1eCCbPvk3-8" source="tNh9Pu8-4xg1eCCbPvk3-39" target="tNh9Pu8-4xg1eCCbPvk3-17">
          <mxGeometry relative="1" as="geometry" />
        </mxCell>
        <mxCell id="tNh9Pu8-4xg1eCCbPvk3-43" value="Ada" style="edgeLabel;html=1;align=center;verticalAlign=middle;resizable=0;points=[];" vertex="1" connectable="0" parent="tNh9Pu8-4xg1eCCbPvk3-42">
          <mxGeometry x="-0.1863" y="4" relative="1" as="geometry">
            <mxPoint as="offset" />
          </mxGeometry>
        </mxCell>
        <mxCell id="tNh9Pu8-4xg1eCCbPvk3-45" style="edgeStyle=orthogonalEdgeStyle;rounded=0;orthogonalLoop=1;jettySize=auto;html=1;entryX=0.5;entryY=0;entryDx=0;entryDy=0;exitX=1;exitY=0.5;exitDx=0;exitDy=0;exitPerimeter=0;" edge="1" parent="tNh9Pu8-4xg1eCCbPvk3-8" source="tNh9Pu8-4xg1eCCbPvk3-39" target="tNh9Pu8-4xg1eCCbPvk3-44">
          <mxGeometry relative="1" as="geometry">
            <mxPoint x="200" y="558" as="sourcePoint" />
          </mxGeometry>
        </mxCell>
        <mxCell id="tNh9Pu8-4xg1eCCbPvk3-46" value="Tidak" style="edgeLabel;html=1;align=center;verticalAlign=middle;resizable=0;points=[];" vertex="1" connectable="0" parent="tNh9Pu8-4xg1eCCbPvk3-45">
          <mxGeometry x="-0.1219" y="-2" relative="1" as="geometry">
            <mxPoint as="offset" />
          </mxGeometry>
        </mxCell>
        <mxCell id="tNh9Pu8-4xg1eCCbPvk3-39" value="" style="strokeWidth=2;html=1;shape=mxgraph.flowchart.decision;whiteSpace=wrap;" vertex="1" parent="tNh9Pu8-4xg1eCCbPvk3-8">
          <mxGeometry x="147" y="550" width="36" height="36" as="geometry" />
        </mxCell>
        <mxCell id="tNh9Pu8-4xg1eCCbPvk3-44" value="Request View Home" style="rounded=1;whiteSpace=wrap;html=1;strokeWidth=2;fillStyle=solid;arcSize=50;" vertex="1" parent="tNh9Pu8-4xg1eCCbPvk3-8">
          <mxGeometry x="183" y="600" width="170" height="37" as="geometry" />
        </mxCell>
        <mxCell id="tNh9Pu8-4xg1eCCbPvk3-19" value="Model" style="swimlane;html=1;startSize=20;" vertex="1" parent="tNh9Pu8-4xg1eCCbPvk3-1">
          <mxGeometry x="560" y="20" width="200" height="760" as="geometry" />
        </mxCell>
        <mxCell id="tNh9Pu8-4xg1eCCbPvk3-52" style="edgeStyle=orthogonalEdgeStyle;rounded=0;orthogonalLoop=1;jettySize=auto;html=1;entryX=0.5;entryY=0;entryDx=0;entryDy=0;entryPerimeter=0;" edge="1" parent="tNh9Pu8-4xg1eCCbPvk3-19" source="tNh9Pu8-4xg1eCCbPvk3-20" target="tNh9Pu8-4xg1eCCbPvk3-51">
          <mxGeometry relative="1" as="geometry" />
        </mxCell>
        <mxCell id="tNh9Pu8-4xg1eCCbPvk3-20" value="Get Data User" style="rounded=1;whiteSpace=wrap;html=1;strokeWidth=2;fillStyle=solid;arcSize=50;" vertex="1" parent="tNh9Pu8-4xg1eCCbPvk3-19">
          <mxGeometry x="20" y="430" width="120" height="37" as="geometry" />
        </mxCell>
        <mxCell id="tNh9Pu8-4xg1eCCbPvk3-51" value="" style="strokeWidth=2;html=1;shape=mxgraph.flowchart.decision;whiteSpace=wrap;" vertex="1" parent="tNh9Pu8-4xg1eCCbPvk3-19">
          <mxGeometry x="62" y="500" width="36" height="36" as="geometry" />
        </mxCell>
        <mxCell id="tNh9Pu8-4xg1eCCbPvk3-21" value="View" style="swimlane;html=1;startSize=20;" vertex="1" parent="tNh9Pu8-4xg1eCCbPvk3-1">
          <mxGeometry x="760" y="20" width="190" height="760" as="geometry" />
        </mxCell>
        <mxCell id="tNh9Pu8-4xg1eCCbPvk3-22" value="Halaman Login" style="rounded=1;whiteSpace=wrap;html=1;strokeWidth=2;fillStyle=solid;arcSize=50;" vertex="1" parent="tNh9Pu8-4xg1eCCbPvk3-21">
          <mxGeometry x="35" y="124" width="120" height="37" as="geometry" />
        </mxCell>
        <mxCell id="tNh9Pu8-4xg1eCCbPvk3-23" style="edgeStyle=orthogonalEdgeStyle;rounded=0;orthogonalLoop=1;jettySize=auto;html=1;entryX=0.5;entryY=0;entryDx=0;entryDy=0;" edge="1" parent="tNh9Pu8-4xg1eCCbPvk3-21" source="tNh9Pu8-4xg1eCCbPvk3-24" target="tNh9Pu8-4xg1eCCbPvk3-25">
          <mxGeometry relative="1" as="geometry" />
        </mxCell>
        <mxCell id="tNh9Pu8-4xg1eCCbPvk3-24" value="Menampilkan view" style="rounded=1;whiteSpace=wrap;html=1;strokeWidth=2;fillStyle=solid;arcSize=50;" vertex="1" parent="tNh9Pu8-4xg1eCCbPvk3-21">
          <mxGeometry x="10" y="650" width="170" height="37" as="geometry" />
        </mxCell>
        <mxCell id="tNh9Pu8-4xg1eCCbPvk3-25" value="" style="ellipse;shape=doubleEllipse;whiteSpace=wrap;html=1;aspect=fixed;" vertex="1" parent="tNh9Pu8-4xg1eCCbPvk3-21">
          <mxGeometry x="70" y="710" width="50" height="50" as="geometry" />
        </mxCell>
        <mxCell id="tNh9Pu8-4xg1eCCbPvk3-26" value="End" style="text;html=1;align=center;verticalAlign=middle;resizable=0;points=[];autosize=1;strokeColor=none;fillColor=none;" vertex="1" parent="tNh9Pu8-4xg1eCCbPvk3-21">
          <mxGeometry x="120" y="710" width="40" height="30" as="geometry" />
        </mxCell>
        <mxCell id="tNh9Pu8-4xg1eCCbPvk3-27" style="edgeStyle=orthogonalEdgeStyle;rounded=0;orthogonalLoop=1;jettySize=auto;html=1;" edge="1" parent="tNh9Pu8-4xg1eCCbPvk3-1" source="tNh9Pu8-4xg1eCCbPvk3-5" target="tNh9Pu8-4xg1eCCbPvk3-18">
          <mxGeometry relative="1" as="geometry">
            <mxPoint x="230" y="164" as="targetPoint" />
          </mxGeometry>
        </mxCell>
        <mxCell id="tNh9Pu8-4xg1eCCbPvk3-28" style="edgeStyle=orthogonalEdgeStyle;rounded=0;orthogonalLoop=1;jettySize=auto;html=1;entryX=1;entryY=0.5;entryDx=0;entryDy=0;exitX=0.5;exitY=1;exitDx=0;exitDy=0;" edge="1" parent="tNh9Pu8-4xg1eCCbPvk3-1" source="tNh9Pu8-4xg1eCCbPvk3-22" target="tNh9Pu8-4xg1eCCbPvk3-6">
          <mxGeometry relative="1" as="geometry" />
        </mxCell>
        <mxCell id="tNh9Pu8-4xg1eCCbPvk3-29" style="edgeStyle=orthogonalEdgeStyle;rounded=0;orthogonalLoop=1;jettySize=auto;html=1;exitX=0.5;exitY=1;exitDx=0;exitDy=0;entryX=0;entryY=0.5;entryDx=0;entryDy=0;" edge="1" parent="tNh9Pu8-4xg1eCCbPvk3-1" source="tNh9Pu8-4xg1eCCbPvk3-6" target="tNh9Pu8-4xg1eCCbPvk3-11">
          <mxGeometry relative="1" as="geometry">
            <mxPoint x="95" y="304" as="targetPoint" />
          </mxGeometry>
        </mxCell>
        <mxCell id="tNh9Pu8-4xg1eCCbPvk3-30" style="edgeStyle=orthogonalEdgeStyle;rounded=0;orthogonalLoop=1;jettySize=auto;html=1;entryX=0.5;entryY=1;entryDx=0;entryDy=0;" edge="1" parent="tNh9Pu8-4xg1eCCbPvk3-1" source="tNh9Pu8-4xg1eCCbPvk3-14" target="tNh9Pu8-4xg1eCCbPvk3-22">
          <mxGeometry relative="1" as="geometry" />
        </mxCell>
        <mxCell id="tNh9Pu8-4xg1eCCbPvk3-31" value="Tidak" style="edgeLabel;html=1;align=center;verticalAlign=middle;resizable=0;points=[];" vertex="1" connectable="0" parent="tNh9Pu8-4xg1eCCbPvk3-30">
          <mxGeometry x="-0.3697" relative="1" as="geometry">
            <mxPoint as="offset" />
          </mxGeometry>
        </mxCell>
        <mxCell id="tNh9Pu8-4xg1eCCbPvk3-35" style="edgeStyle=orthogonalEdgeStyle;rounded=0;orthogonalLoop=1;jettySize=auto;html=1;entryX=0;entryY=0.5;entryDx=0;entryDy=0;exitX=0.5;exitY=1;exitDx=0;exitDy=0;" edge="1" parent="tNh9Pu8-4xg1eCCbPvk3-1" source="tNh9Pu8-4xg1eCCbPvk3-17" target="tNh9Pu8-4xg1eCCbPvk3-24">
          <mxGeometry relative="1" as="geometry" />
        </mxCell>
        <mxCell id="tNh9Pu8-4xg1eCCbPvk3-36" style="edgeStyle=orthogonalEdgeStyle;rounded=0;orthogonalLoop=1;jettySize=auto;html=1;" edge="1" parent="tNh9Pu8-4xg1eCCbPvk3-1" source="tNh9Pu8-4xg1eCCbPvk3-18" target="tNh9Pu8-4xg1eCCbPvk3-22">
          <mxGeometry relative="1" as="geometry" />
        </mxCell>
        <mxCell id="tNh9Pu8-4xg1eCCbPvk3-48" style="edgeStyle=orthogonalEdgeStyle;rounded=0;orthogonalLoop=1;jettySize=auto;html=1;entryX=0;entryY=0.5;entryDx=0;entryDy=0;exitX=0.5;exitY=1;exitDx=0;exitDy=0;exitPerimeter=0;" edge="1" parent="tNh9Pu8-4xg1eCCbPvk3-1" source="tNh9Pu8-4xg1eCCbPvk3-14" target="tNh9Pu8-4xg1eCCbPvk3-20">
          <mxGeometry relative="1" as="geometry" />
        </mxCell>
        <mxCell id="tNh9Pu8-4xg1eCCbPvk3-49" value="Ya" style="edgeLabel;html=1;align=center;verticalAlign=middle;resizable=0;points=[];" vertex="1" connectable="0" parent="tNh9Pu8-4xg1eCCbPvk3-48">
          <mxGeometry x="0.1878" relative="1" as="geometry">
            <mxPoint as="offset" />
          </mxGeometry>
        </mxCell>
        <mxCell id="tNh9Pu8-4xg1eCCbPvk3-47" style="edgeStyle=orthogonalEdgeStyle;rounded=0;orthogonalLoop=1;jettySize=auto;html=1;entryX=0.5;entryY=0;entryDx=0;entryDy=0;" edge="1" parent="tNh9Pu8-4xg1eCCbPvk3-1" source="tNh9Pu8-4xg1eCCbPvk3-44" target="tNh9Pu8-4xg1eCCbPvk3-24">
          <mxGeometry relative="1" as="geometry">
            <mxPoint x="760" y="814" as="targetPoint" />
          </mxGeometry>
        </mxCell>
        <mxCell id="tNh9Pu8-4xg1eCCbPvk3-53" style="edgeStyle=orthogonalEdgeStyle;rounded=0;orthogonalLoop=1;jettySize=auto;html=1;entryX=0.5;entryY=1;entryDx=0;entryDy=0;" edge="1" parent="tNh9Pu8-4xg1eCCbPvk3-1" source="tNh9Pu8-4xg1eCCbPvk3-51" target="tNh9Pu8-4xg1eCCbPvk3-22">
          <mxGeometry relative="1" as="geometry" />
        </mxCell>
        <mxCell id="tNh9Pu8-4xg1eCCbPvk3-55" value="Tidak&amp;nbsp; Ketemu" style="edgeLabel;html=1;align=center;verticalAlign=middle;resizable=0;points=[];" vertex="1" connectable="0" parent="tNh9Pu8-4xg1eCCbPvk3-53">
          <mxGeometry x="-0.8267" y="2" relative="1" as="geometry">
            <mxPoint as="offset" />
          </mxGeometry>
        </mxCell>
        <mxCell id="tNh9Pu8-4xg1eCCbPvk3-54" style="edgeStyle=orthogonalEdgeStyle;rounded=0;orthogonalLoop=1;jettySize=auto;html=1;entryX=1;entryY=0.5;entryDx=0;entryDy=0;" edge="1" parent="tNh9Pu8-4xg1eCCbPvk3-1" source="tNh9Pu8-4xg1eCCbPvk3-51" target="tNh9Pu8-4xg1eCCbPvk3-16">
          <mxGeometry relative="1" as="geometry" />
        </mxCell>
        <mxCell id="tNh9Pu8-4xg1eCCbPvk3-56" value="Ketemu" style="edgeLabel;html=1;align=center;verticalAlign=middle;resizable=0;points=[];" vertex="1" connectable="0" parent="tNh9Pu8-4xg1eCCbPvk3-54">
          <mxGeometry x="-0.1792" relative="1" as="geometry">
            <mxPoint as="offset" />
          </mxGeometry>
        </mxCell>
      </root>
    </mxGraphModel>
  </diagram>
</mxfile>
